<svg  viewBox="0 0 26 26" fill="none" xmlns="http://www.w3.org/2000/svg">
<g clip-path="url(#clip0_3753_24394)" filter="url(#filter0_d_3753_24394)">
<path d="M15.2876 3.75C16.0201 3.89292 16.6934 4.25119 17.2211 4.77895C17.7489 5.30671 18.1071 5.97995 18.2501 6.7125M15.2876 0.75C16.8095 0.919077 18.2288 1.60063 19.3123 2.68276C20.3957 3.76488 21.0791 5.18326 21.2501 6.705M20.5001 12.69V14.94C20.5009 15.1489 20.4581 15.3556 20.3745 15.547C20.2908 15.7384 20.168 15.9102 20.0141 16.0514C19.8602 16.1926 19.6785 16.3001 19.4806 16.367C19.2828 16.4339 19.0731 16.4588 18.8651 16.44C16.5572 16.1892 14.3403 15.4006 12.3926 14.1375C10.5804 12.986 9.04407 11.4496 7.89257 9.6375C6.62506 7.6809 5.83625 5.45325 5.59007 3.135C5.57133 2.9276 5.59598 2.71857 5.66245 2.52122C5.72892 2.32387 5.83575 2.14252 5.97615 1.98872C6.11654 1.83491 6.28743 1.71203 6.47792 1.62789C6.6684 1.54375 6.87433 1.5002 7.08257 1.5H9.33257C9.69655 1.49642 10.0494 1.62531 10.3254 1.86265C10.6014 2.09999 10.7816 2.42959 10.8326 2.79C10.9275 3.51005 11.1037 4.21705 11.3576 4.8975C11.4585 5.16594 11.4803 5.45769 11.4205 5.73816C11.3607 6.01863 11.2217 6.27608 11.0201 6.48L10.0676 7.4325C11.1352 9.31016 12.6899 10.8648 14.5676 11.9325L15.5201 10.98C15.724 10.7784 15.9814 10.6394 16.2619 10.5796C16.5424 10.5198 16.8341 10.5416 17.1026 10.6425C17.783 10.8964 18.49 11.0725 19.2101 11.1675C19.5744 11.2189 19.9071 11.4024 20.145 11.6831C20.3828 11.9638 20.5092 12.3222 20.5001 12.69Z" stroke="#8E7673" stroke-width="2" stroke-linecap="round" stroke-linejoin="round"/>
</g>
<defs>
<filter id="filter0_d_3753_24394" x="0" y="0" width="26" height="26" filterUnits="userSpaceOnUse" color-interpolation-filters="sRGB">
<feFlood flood-opacity="0" result="BackgroundImageFix"/>
<feColorMatrix in="SourceAlpha" type="matrix" values="0 0 0 0 0 0 0 0 0 0 0 0 0 0 0 0 0 0 127 0" result="hardAlpha"/>
<feOffset dy="4"/>
<feGaussianBlur stdDeviation="2"/>
<feComposite in2="hardAlpha" operator="out"/>
<feColorMatrix type="matrix" values="0 0 0 0 0 0 0 0 0 0 0 0 0 0 0 0 0 0 0.25 0"/>
<feBlend mode="normal" in2="BackgroundImageFix" result="effect1_dropShadow_3753_24394"/>
<feBlend mode="normal" in="SourceGraphic" in2="effect1_dropShadow_3753_24394" result="shape"/>
</filter>
<clipPath id="clip0_3753_24394">
<rect width="18" height="18" fill="white" transform="translate(4)"/>
</clipPath>
</defs>
</svg>
